<mxfile host="app.diagrams.net" modified="2022-01-17T12:27:58.908Z" agent="5.0 (Windows NT 10.0; Win64; x64) AppleWebKit/537.36 (KHTML, like Gecko) Chrome/97.0.4692.71 Safari/537.36" etag="6h3gBEZvhsTY8MmdKLIX" version="16.2.7" type="github">
  <diagram id="kCLuyAf2gFzRpj-ug0Gs" name="Spark执行流程">
    <mxGraphModel dx="1209" dy="711" grid="1" gridSize="10" guides="1" tooltips="1" connect="1" arrows="1" fold="1" page="1" pageScale="1" pageWidth="827" pageHeight="1169" math="0" shadow="0">
      <root>
        <mxCell id="0" />
        <mxCell id="1" parent="0" />
        <mxCell id="vRKNIITZf9hjwW_zpsUb-2" value="" style="rounded=0;whiteSpace=wrap;html=1;strokeWidth=2;" vertex="1" parent="1">
          <mxGeometry x="10" y="20" width="1000" height="580" as="geometry" />
        </mxCell>
        <mxCell id="vRKNIITZf9hjwW_zpsUb-18" value="" style="rounded=1;whiteSpace=wrap;html=1;fontSize=24;strokeWidth=2;fillColor=none;" vertex="1" parent="1">
          <mxGeometry x="310" y="130" width="70" height="90" as="geometry" />
        </mxCell>
        <mxCell id="vRKNIITZf9hjwW_zpsUb-3" value="RDD Objects" style="text;html=1;strokeColor=none;fillColor=none;align=center;verticalAlign=middle;whiteSpace=wrap;rounded=0;strokeWidth=24;fontSize=28;fontStyle=1" vertex="1" parent="1">
          <mxGeometry x="45" y="50" width="200" height="30" as="geometry" />
        </mxCell>
        <mxCell id="vRKNIITZf9hjwW_zpsUb-8" style="rounded=0;orthogonalLoop=1;jettySize=auto;html=1;entryX=0.5;entryY=0;entryDx=0;entryDy=0;fontSize=2;strokeWidth=2;" edge="1" parent="1" source="vRKNIITZf9hjwW_zpsUb-4" target="vRKNIITZf9hjwW_zpsUb-6">
          <mxGeometry relative="1" as="geometry" />
        </mxCell>
        <mxCell id="vRKNIITZf9hjwW_zpsUb-4" value="" style="rounded=1;whiteSpace=wrap;html=1;fontSize=2;strokeWidth=2;fillColor=#dae8fc;gradientColor=#7ea6e0;strokeColor=#6c8ebf;" vertex="1" parent="1">
          <mxGeometry x="60" y="140" width="60" height="40" as="geometry" />
        </mxCell>
        <mxCell id="vRKNIITZf9hjwW_zpsUb-9" style="edgeStyle=none;rounded=0;orthogonalLoop=1;jettySize=auto;html=1;entryX=0.5;entryY=0;entryDx=0;entryDy=0;fontSize=2;strokeWidth=2;" edge="1" parent="1" source="vRKNIITZf9hjwW_zpsUb-5" target="vRKNIITZf9hjwW_zpsUb-6">
          <mxGeometry relative="1" as="geometry" />
        </mxCell>
        <mxCell id="vRKNIITZf9hjwW_zpsUb-5" value="" style="rounded=1;whiteSpace=wrap;html=1;fontSize=2;strokeWidth=2;fillColor=#dae8fc;gradientColor=#7ea6e0;strokeColor=#6c8ebf;" vertex="1" parent="1">
          <mxGeometry x="160" y="140" width="60" height="40" as="geometry" />
        </mxCell>
        <mxCell id="vRKNIITZf9hjwW_zpsUb-10" style="edgeStyle=none;rounded=0;orthogonalLoop=1;jettySize=auto;html=1;entryX=0.5;entryY=0;entryDx=0;entryDy=0;fontSize=2;strokeWidth=2;" edge="1" parent="1" source="vRKNIITZf9hjwW_zpsUb-6" target="vRKNIITZf9hjwW_zpsUb-7">
          <mxGeometry relative="1" as="geometry" />
        </mxCell>
        <mxCell id="vRKNIITZf9hjwW_zpsUb-6" value="" style="rounded=1;whiteSpace=wrap;html=1;fontSize=2;strokeWidth=2;fillColor=#dae8fc;gradientColor=#7ea6e0;strokeColor=#6c8ebf;" vertex="1" parent="1">
          <mxGeometry x="110" y="230" width="60" height="40" as="geometry" />
        </mxCell>
        <mxCell id="vRKNIITZf9hjwW_zpsUb-7" value="" style="rounded=1;whiteSpace=wrap;html=1;fontSize=2;strokeWidth=2;fillColor=#dae8fc;gradientColor=#7ea6e0;strokeColor=#6c8ebf;" vertex="1" parent="1">
          <mxGeometry x="110" y="310" width="60" height="40" as="geometry" />
        </mxCell>
        <mxCell id="vRKNIITZf9hjwW_zpsUb-11" value="rdd1.join(rdd2)&amp;nbsp; &amp;nbsp; &amp;nbsp; &amp;nbsp; .groupBy(...)&lt;br style=&quot;font-size: 24px;&quot;&gt;&amp;nbsp; .filter(...)" style="text;html=1;strokeColor=none;fillColor=none;align=center;verticalAlign=middle;whiteSpace=wrap;rounded=0;fontSize=24;" vertex="1" parent="1">
          <mxGeometry x="45" y="390" width="190" height="80" as="geometry" />
        </mxCell>
        <mxCell id="vRKNIITZf9hjwW_zpsUb-12" value="构造操作符 DAG" style="text;html=1;strokeColor=none;fillColor=none;align=center;verticalAlign=middle;whiteSpace=wrap;rounded=0;fontSize=24;" vertex="1" parent="1">
          <mxGeometry x="25" y="520" width="240" height="30" as="geometry" />
        </mxCell>
        <mxCell id="vRKNIITZf9hjwW_zpsUb-14" value="" style="endArrow=none;html=1;rounded=0;fontSize=28;strokeWidth=2;strokeColor=#999999;" edge="1" parent="1">
          <mxGeometry width="50" height="50" relative="1" as="geometry">
            <mxPoint x="288" y="550" as="sourcePoint" />
            <mxPoint x="288" y="90" as="targetPoint" />
          </mxGeometry>
        </mxCell>
        <mxCell id="vRKNIITZf9hjwW_zpsUb-30" style="edgeStyle=none;rounded=0;orthogonalLoop=1;jettySize=auto;html=1;entryX=0;entryY=0.5;entryDx=0;entryDy=0;fontSize=24;strokeColor=#000000;strokeWidth=2;" edge="1" parent="1" source="vRKNIITZf9hjwW_zpsUb-15" target="vRKNIITZf9hjwW_zpsUb-23">
          <mxGeometry relative="1" as="geometry" />
        </mxCell>
        <mxCell id="vRKNIITZf9hjwW_zpsUb-32" style="edgeStyle=none;rounded=0;orthogonalLoop=1;jettySize=auto;html=1;entryX=0;entryY=0.5;entryDx=0;entryDy=0;fontSize=24;strokeColor=#000000;strokeWidth=2;" edge="1" parent="1" source="vRKNIITZf9hjwW_zpsUb-15" target="vRKNIITZf9hjwW_zpsUb-24">
          <mxGeometry relative="1" as="geometry" />
        </mxCell>
        <mxCell id="vRKNIITZf9hjwW_zpsUb-33" style="edgeStyle=none;rounded=0;orthogonalLoop=1;jettySize=auto;html=1;entryX=0;entryY=0.5;entryDx=0;entryDy=0;fontSize=24;strokeColor=#000000;strokeWidth=2;" edge="1" parent="1" source="vRKNIITZf9hjwW_zpsUb-15" target="vRKNIITZf9hjwW_zpsUb-25">
          <mxGeometry relative="1" as="geometry" />
        </mxCell>
        <mxCell id="vRKNIITZf9hjwW_zpsUb-15" value="" style="rounded=1;whiteSpace=wrap;html=1;fontSize=2;strokeWidth=2;fillColor=#dae8fc;gradientColor=#7ea6e0;strokeColor=#6c8ebf;" vertex="1" parent="1">
          <mxGeometry x="320" y="140" width="50" height="30" as="geometry" />
        </mxCell>
        <mxCell id="vRKNIITZf9hjwW_zpsUb-31" style="edgeStyle=none;rounded=0;orthogonalLoop=1;jettySize=auto;html=1;entryX=0;entryY=0.5;entryDx=0;entryDy=0;fontSize=24;strokeColor=#000000;strokeWidth=2;" edge="1" parent="1" source="vRKNIITZf9hjwW_zpsUb-17" target="vRKNIITZf9hjwW_zpsUb-23">
          <mxGeometry relative="1" as="geometry" />
        </mxCell>
        <mxCell id="vRKNIITZf9hjwW_zpsUb-34" style="edgeStyle=none;rounded=0;orthogonalLoop=1;jettySize=auto;html=1;entryX=0;entryY=0.5;entryDx=0;entryDy=0;fontSize=24;strokeColor=#000000;strokeWidth=2;" edge="1" parent="1" source="vRKNIITZf9hjwW_zpsUb-17" target="vRKNIITZf9hjwW_zpsUb-24">
          <mxGeometry relative="1" as="geometry" />
        </mxCell>
        <mxCell id="vRKNIITZf9hjwW_zpsUb-36" style="edgeStyle=none;rounded=0;orthogonalLoop=1;jettySize=auto;html=1;entryX=0;entryY=0.5;entryDx=0;entryDy=0;fontSize=24;strokeColor=#000000;strokeWidth=2;" edge="1" parent="1" source="vRKNIITZf9hjwW_zpsUb-17" target="vRKNIITZf9hjwW_zpsUb-25">
          <mxGeometry relative="1" as="geometry" />
        </mxCell>
        <mxCell id="vRKNIITZf9hjwW_zpsUb-17" value="" style="rounded=1;whiteSpace=wrap;html=1;fontSize=2;strokeWidth=2;fillColor=#dae8fc;gradientColor=#7ea6e0;strokeColor=#6c8ebf;" vertex="1" parent="1">
          <mxGeometry x="320" y="178" width="50" height="30" as="geometry" />
        </mxCell>
        <mxCell id="vRKNIITZf9hjwW_zpsUb-19" value="" style="rounded=1;whiteSpace=wrap;html=1;fontSize=24;strokeWidth=2;fillColor=none;" vertex="1" parent="1">
          <mxGeometry x="310" y="230" width="70" height="90" as="geometry" />
        </mxCell>
        <mxCell id="vRKNIITZf9hjwW_zpsUb-35" style="edgeStyle=none;rounded=0;orthogonalLoop=1;jettySize=auto;html=1;entryX=0;entryY=0.25;entryDx=0;entryDy=0;fontSize=24;strokeColor=#000000;strokeWidth=2;" edge="1" parent="1" source="vRKNIITZf9hjwW_zpsUb-20" target="vRKNIITZf9hjwW_zpsUb-23">
          <mxGeometry relative="1" as="geometry" />
        </mxCell>
        <mxCell id="vRKNIITZf9hjwW_zpsUb-37" style="edgeStyle=none;rounded=0;orthogonalLoop=1;jettySize=auto;html=1;entryX=0;entryY=0.25;entryDx=0;entryDy=0;fontSize=24;strokeColor=#000000;strokeWidth=2;" edge="1" parent="1" source="vRKNIITZf9hjwW_zpsUb-20" target="vRKNIITZf9hjwW_zpsUb-24">
          <mxGeometry relative="1" as="geometry" />
        </mxCell>
        <mxCell id="vRKNIITZf9hjwW_zpsUb-38" style="edgeStyle=none;rounded=0;orthogonalLoop=1;jettySize=auto;html=1;entryX=0;entryY=0.5;entryDx=0;entryDy=0;fontSize=24;strokeColor=#000000;strokeWidth=2;" edge="1" parent="1" source="vRKNIITZf9hjwW_zpsUb-20" target="vRKNIITZf9hjwW_zpsUb-25">
          <mxGeometry relative="1" as="geometry" />
        </mxCell>
        <mxCell id="vRKNIITZf9hjwW_zpsUb-20" value="" style="rounded=1;whiteSpace=wrap;html=1;fontSize=2;strokeWidth=2;fillColor=#dae8fc;gradientColor=#7ea6e0;strokeColor=#6c8ebf;" vertex="1" parent="1">
          <mxGeometry x="320" y="240" width="50" height="30" as="geometry" />
        </mxCell>
        <mxCell id="vRKNIITZf9hjwW_zpsUb-39" style="edgeStyle=none;rounded=0;orthogonalLoop=1;jettySize=auto;html=1;entryX=0.157;entryY=0.154;entryDx=0;entryDy=0;entryPerimeter=0;fontSize=24;strokeColor=#000000;strokeWidth=2;" edge="1" parent="1" source="vRKNIITZf9hjwW_zpsUb-21" target="vRKNIITZf9hjwW_zpsUb-22">
          <mxGeometry relative="1" as="geometry" />
        </mxCell>
        <mxCell id="vRKNIITZf9hjwW_zpsUb-40" style="edgeStyle=none;rounded=0;orthogonalLoop=1;jettySize=auto;html=1;entryX=0;entryY=0.25;entryDx=0;entryDy=0;fontSize=24;strokeColor=#000000;strokeWidth=2;" edge="1" parent="1" source="vRKNIITZf9hjwW_zpsUb-21" target="vRKNIITZf9hjwW_zpsUb-24">
          <mxGeometry relative="1" as="geometry" />
        </mxCell>
        <mxCell id="vRKNIITZf9hjwW_zpsUb-41" style="edgeStyle=none;rounded=0;orthogonalLoop=1;jettySize=auto;html=1;entryX=0;entryY=0.25;entryDx=0;entryDy=0;fontSize=24;strokeColor=#000000;strokeWidth=2;" edge="1" parent="1" source="vRKNIITZf9hjwW_zpsUb-21" target="vRKNIITZf9hjwW_zpsUb-25">
          <mxGeometry relative="1" as="geometry" />
        </mxCell>
        <mxCell id="vRKNIITZf9hjwW_zpsUb-21" value="" style="rounded=1;whiteSpace=wrap;html=1;fontSize=2;strokeWidth=2;fillColor=#dae8fc;gradientColor=#7ea6e0;strokeColor=#6c8ebf;" vertex="1" parent="1">
          <mxGeometry x="320" y="278" width="50" height="30" as="geometry" />
        </mxCell>
        <mxCell id="vRKNIITZf9hjwW_zpsUb-22" value="" style="rounded=1;whiteSpace=wrap;html=1;fontSize=24;strokeWidth=2;fillColor=none;" vertex="1" parent="1">
          <mxGeometry x="429" y="160" width="70" height="130" as="geometry" />
        </mxCell>
        <mxCell id="vRKNIITZf9hjwW_zpsUb-42" style="edgeStyle=none;rounded=0;orthogonalLoop=1;jettySize=auto;html=1;entryX=0;entryY=0.5;entryDx=0;entryDy=0;fontSize=24;strokeColor=#000000;strokeWidth=2;" edge="1" parent="1" source="vRKNIITZf9hjwW_zpsUb-23" target="vRKNIITZf9hjwW_zpsUb-27">
          <mxGeometry relative="1" as="geometry" />
        </mxCell>
        <mxCell id="vRKNIITZf9hjwW_zpsUb-23" value="" style="rounded=1;whiteSpace=wrap;html=1;fontSize=2;strokeWidth=2;fillColor=#dae8fc;gradientColor=#7ea6e0;strokeColor=#6c8ebf;" vertex="1" parent="1">
          <mxGeometry x="439" y="169" width="50" height="30" as="geometry" />
        </mxCell>
        <mxCell id="vRKNIITZf9hjwW_zpsUb-43" style="edgeStyle=none;rounded=0;orthogonalLoop=1;jettySize=auto;html=1;entryX=0;entryY=0.5;entryDx=0;entryDy=0;fontSize=24;strokeColor=#000000;strokeWidth=2;" edge="1" parent="1" source="vRKNIITZf9hjwW_zpsUb-24" target="vRKNIITZf9hjwW_zpsUb-28">
          <mxGeometry relative="1" as="geometry" />
        </mxCell>
        <mxCell id="vRKNIITZf9hjwW_zpsUb-24" value="" style="rounded=1;whiteSpace=wrap;html=1;fontSize=2;strokeWidth=2;fillColor=#dae8fc;gradientColor=#7ea6e0;strokeColor=#6c8ebf;" vertex="1" parent="1">
          <mxGeometry x="439" y="207" width="50" height="30" as="geometry" />
        </mxCell>
        <mxCell id="vRKNIITZf9hjwW_zpsUb-44" style="edgeStyle=none;rounded=0;orthogonalLoop=1;jettySize=auto;html=1;entryX=0;entryY=0.5;entryDx=0;entryDy=0;fontSize=24;strokeColor=#000000;strokeWidth=2;" edge="1" parent="1" source="vRKNIITZf9hjwW_zpsUb-25" target="vRKNIITZf9hjwW_zpsUb-29">
          <mxGeometry relative="1" as="geometry" />
        </mxCell>
        <mxCell id="vRKNIITZf9hjwW_zpsUb-25" value="" style="rounded=1;whiteSpace=wrap;html=1;fontSize=2;strokeWidth=2;fillColor=#dae8fc;gradientColor=#7ea6e0;strokeColor=#6c8ebf;" vertex="1" parent="1">
          <mxGeometry x="439" y="248" width="50" height="30" as="geometry" />
        </mxCell>
        <mxCell id="vRKNIITZf9hjwW_zpsUb-26" value="" style="rounded=1;whiteSpace=wrap;html=1;fontSize=24;strokeWidth=2;fillColor=none;" vertex="1" parent="1">
          <mxGeometry x="550" y="160" width="70" height="130" as="geometry" />
        </mxCell>
        <mxCell id="vRKNIITZf9hjwW_zpsUb-27" value="" style="rounded=1;whiteSpace=wrap;html=1;fontSize=2;strokeWidth=2;fillColor=#dae8fc;gradientColor=#7ea6e0;strokeColor=#6c8ebf;" vertex="1" parent="1">
          <mxGeometry x="560" y="169" width="50" height="30" as="geometry" />
        </mxCell>
        <mxCell id="vRKNIITZf9hjwW_zpsUb-28" value="" style="rounded=1;whiteSpace=wrap;html=1;fontSize=2;strokeWidth=2;fillColor=#dae8fc;gradientColor=#7ea6e0;strokeColor=#6c8ebf;" vertex="1" parent="1">
          <mxGeometry x="560" y="207" width="50" height="30" as="geometry" />
        </mxCell>
        <mxCell id="vRKNIITZf9hjwW_zpsUb-29" value="" style="rounded=1;whiteSpace=wrap;html=1;fontSize=2;strokeWidth=2;fillColor=#dae8fc;gradientColor=#7ea6e0;strokeColor=#6c8ebf;" vertex="1" parent="1">
          <mxGeometry x="560" y="248" width="50" height="30" as="geometry" />
        </mxCell>
        <mxCell id="vRKNIITZf9hjwW_zpsUb-45" value="&lt;div&gt;将图分解成一系列 stage&lt;/div&gt;&lt;div&gt;每个 stage 由若干个task 构成&lt;/div&gt;&lt;div&gt;将 task 提交到集群中&lt;/div&gt;" style="text;html=1;strokeColor=none;fillColor=none;align=left;verticalAlign=middle;whiteSpace=wrap;rounded=0;fontSize=24;" vertex="1" parent="1">
          <mxGeometry x="299" y="365" width="330" height="130" as="geometry" />
        </mxCell>
      </root>
    </mxGraphModel>
  </diagram>
</mxfile>
